<svg width="1200" height="900" viewBox="0 0 1200 900" xmlns="http://www.w3.org/2000/svg">
  <defs>
    <linearGradient id="bg6" x1="0%" y1="0%" x2="100%" y2="100%">
      <stop offset="0%" style="stop-color:#ffebee;stop-opacity:1" />
      <stop offset="100%" style="stop-color:#ef5350;stop-opacity:1" />
    </linearGradient>
  </defs>
  <rect width="1200" height="900" fill="url(#bg6)"/>
  
  <!-- Jaw outline -->
  <path d="M300 400Q600 600 900 400" fill="none" stroke="#d32f2f" stroke-width="8" stroke-linecap="round"/>
  
  <!-- Wisdom tooth (impacted) -->
  <g transform="translate(700, 450) rotate(45)">
    <path d="M0 -50C-25 -50 -37.5 -37.5 -42.5 -25C-47.5 -12.5 -52.5 0 -57.5 25C-62.5 50 -57.5 87.5 -47.5 112.5C-42.5 125 -37.5 125 -32.5 112.5C-27.5 100 -22.5 75 -17.5 62.5C-12.5 50 -7.5 50 -7.5 50C-7.5 50 -2.5 50 2.5 62.5C7.5 75 12.5 100 17.5 112.5C22.5 125 27.5 125 32.5 112.5C42.5 87.5 47.5 50 42.5 25C37.5 0 32.5 -12.5 27.5 -25C22.5 -37.5 10 -50 -15 -50C-27.5 -50 -33.75 -50 0 -50Z" fill="white" stroke="#d32f2f" stroke-width="6"/>
  </g>
  
  <!-- Pain indicators -->
  <circle cx="700" cy="450" r="80" fill="none" stroke="#ff1744" stroke-width="4" opacity="0.6"/>
  <circle cx="700" cy="450" r="120" fill="none" stroke="#ff1744" stroke-width="3" opacity="0.4"/>
  <circle cx="700" cy="450" r="160" fill="none" stroke="#ff1744" stroke-width="2" opacity="0.2"/>
  
  <!-- Text -->
  <text x="600" y="800" font-family="Arial, sans-serif" font-size="72" font-weight="bold" fill="#d32f2f" text-anchor="middle">Wisdom Tooth Surgery</text>
</svg>
